<?xml version="1.0" encoding="utf-8"?>
<!-- Generator: Adobe Illustrator 20.1.0, SVG Export Plug-In . SVG Version: 6.00 Build 0)  -->
<svg version="1.1" id="Layer_1" xmlns="http://www.w3.org/2000/svg" xmlns:xlink="http://www.w3.org/1999/xlink" x="0px" y="0px"
	 viewBox="0 0 491.6 493.5" style="enable-background:new 0 0 491.6 493.5;" xml:space="preserve">
<style type="text/css">
	.st0{fill:#78A6D1;}
	.st1{fill:#6290C3;}
	.st2{fill:#F4D3AA;}
	.st3{fill:#FFFFFF;}
	.st4{opacity:0.3;}
	.st5{fill:#EEF3F9;}
	.st6{opacity:0.9;}
	.st7{fill:#F0F2F8;}
	.st8{fill:#EDF0F7;}
	.st9{fill:#EEF1F8;}
	.st10{fill:#C2CFE6;}
	.st11{fill:#CAD5E9;}
	.st12{fill:#C5D2E7;}
	.st13{fill:#CDD7EA;}
	.st14{fill:#DAE1EF;}
	.st15{fill:#D5DEED;}
	.st16{fill:#DFE5F1;}
	.st17{fill:#E7EBF5;}
	.st18{fill:#4E5057;}
	.st19{fill:#4F5057;}
	.st20{fill:#DABD9D;}
	.st21{fill:#336390;}
</style>
<g>
	<path class="st0" d="M113.5,234.8C91.6,189,49.7,156,0,145.3c13.3,42.4,34.3,82,62,116.8c10.4,13.3,29,15.9,41.2,7.2
		C113.5,262,117.9,247.9,113.5,234.8L113.5,234.8z"/>
	<path class="st1" d="M113.5,229.3C91.3,183.7,49.6,150.7,0,139.8c0.2,0-0.2,4.5,0,5c9.8,31.2,23.8,60.9,41.6,88.4
		c4.9,7.6,10.2,15.1,15.7,22.3c4.7,6.2,9.3,12.1,16.6,15.5c11.9,5.5,26.7,3,35-7.4C116.1,254.4,117,240.3,113.5,229.3
		c0.5,1.5-0.4,3.5,0,5c2.2,6.3,1.7,13.1-1.4,19c-2.7,5.6-7.2,10.1-12.7,12.8c-10.6,5.1-23.5,2.9-32.5-4.4
		c-5.7-4.7-9.9-11.3-14.2-17.2c-4.7-6.5-9.2-13.1-13.4-19.8c-7.9-12.5-15-25.5-21.3-38.9c-7-14.9-13-30.2-17.9-45.9v5
		c49.5,10.9,91.3,43.9,113.4,89.5C112.8,233,114.1,230.7,113.5,229.3z"/>
	<path class="st0" d="M423.9,177.5c-19.4,15.5-35.1,35.1-45.8,57.5c-4.5,13.1-0.1,27.2,10.2,34.5c12.3,8.7,30.8,6.1,41.2-7.2
		c27.7-34.8,48.7-74.4,62-116.8C466.8,150.8,443.7,161.7,423.9,177.5L423.9,177.5z"/>
	<path class="st1" d="M423.9,172c-16,12.8-29.5,28.5-39.8,46.2c-3.7,6.4-7.3,12.6-7.7,20.2c-0.3,5.9-0.1,12,2,17.5
		c6.7,18,28.8,23.1,44.1,12.6c9.1-6.3,15.5-17.4,21.7-26.3c6.3-9.1,12.1-18.5,17.6-28.2c12.3-21.9,22.3-45,29.8-69
		c0.2-0.5-0.2-5,0-5C466.9,145.3,443.8,156.3,423.9,172c-0.8,0.6,0.8,4.4,0,5c19.8-15.7,43-26.6,67.7-32v-5
		c-12.6,39.9-31.9,77.4-57.2,110.7c-5.6,7.4-11.1,14-20.2,16.9c-7.6,2.5-15.9,1.8-23-1.9c-7.7-4.2-12.4-11.8-14.2-20.2
		c-1.5-7.3,2.7-14.2,6.1-20.3c10.4-18.5,24.3-34.8,40.9-48.1C424.7,176.3,423.1,172.6,423.9,172L423.9,172z"/>
</g>
<title>happy</title>
<path id="_Path_" class="st2" d="M240.3,463.5c-1.8-1.8-4-3.2-6.5-4v-56.2h-8v52.6c-7.2-3.9-16.8-2.4-23.3,4.2
	c-7.8,7.9-1.2,30.9-1,27.1c0.1-2.2,3.5-5.1,8-8.3c0.2,8,2.6,15.4,2.7,13.1C212.4,484.8,247.5,470.6,240.3,463.5L240.3,463.5z"/>
<path class="st1" d="M241.5,462.6c-1.7-1.5-5.7-3-6.1-3.9c-0.5-1.3,0-3.8,0-5.2v-50.2c-0.1-0.7-0.6-1.2-1.3-1.1c0,0-0.1,0-0.1,0h-8
	c-0.8,0-1.5,0.5-1.7,1.3V456l2.5-1.2C216.4,449.7,201,454,198,466c-0.7,2.7-2,23.2,3.4,22.7c0.7,0,1.3-0.4,1.6-1
	c1.6-3.8,4.3-5.8,7.6-8.1l-2.6-0.7c0.1,2.7,0,14.6,4.1,14.6c0.8,0,1.5-0.5,1.7-1.3c1.3-7.7,36-20.4,28-29.4c-1-1.1-3.9,0.2-2.8,1.4
	c4.1,4.7-12.1,13.5-15,15.4c-4.5,3-12.4,6.8-13.4,12.8l1.7-1.3c1.5,0,0.1-2.7-0.1-3.7c-0.6-2.9-1-5.8-1.1-8.7
	c-0.1-1.3-1.8-1.3-2.6-0.7c-3.8,2.8-6.7,5-8.5,9.2l1.6-1c1.5-0.1,0.8,0.4,0.5-1.4c-0.2-1.2-0.6-2.4-0.8-3.7c-0.7-3.8-1-7.6-0.7-11.4
	c1-12,13.9-18,24.5-12.8c0.8,0.4,2.5-0.2,2.5-1.2v-52.6l-1.7,1.3h8l-1.5-1.1v56.2c0,0.5,0.3,0.9,0.7,1c2.3,0.9,4.4,2.2,6.2,3.8
	C240.2,465.4,242.9,463.8,241.5,462.6L241.5,462.6z"/>
<path id="_Path_2" class="st2" d="M287,460.3c0.5-2.5,1.6-4.9,3.1-6.9l-31.5-46.5l6.6-4.5l29.5,43.5c3.7-7.3,12.5-11.4,21.6-9.6
	c10.8,2.2,18.3,24.9,16,21.8c-1.3-1.8-5.8-2.3-11.3-2.4c4.3,6.7,6.4,14.2,5.1,12.4C322,462.3,285,470.2,287,460.3L287,460.3z"/>
<path class="st1" d="M288.1,459.8c0.5-2.3,1.5-4.4,2.8-6.3c0.3-0.3,0.5-0.9,0.3-1.3l-31.5-46.5l-1.1,2.2c1.3-0.9,5-4.5,6.5-4.4
	c-1.6-0.1,0.2,1.7,0.6,2.3l10,14.8l18,26.6c0.5,0.7,1.9-1.2,2-1.4c6.1-10.7,20.8-11.1,28.1-2.1c2.3,2.9,4.2,6.1,5.7,9.5
	c0.7,1.5,2.4,4.4,2.1,6.1l1.5-2c1-0.6-1.2-1.3-2-1.7c-2.7-1.2-6.3-1-9.1-1.1c-0.7,0-2.5,1.6-2,2.3c2.1,3.4,5.3,8.2,5.5,12.3l1.3-1.8
	c1.8-1.2-5-2.5-5.8-2.6c-4.3-0.3-8.7-0.4-13-0.2c-3.5,0-20.6,1.6-19.7-5c0.1-1.2-2.2,0.8-2.3,1.7c-1.4,10.9,34.1,2.7,39.6,8.5
	c0.3,0.1,0.7,0.1,1-0.2c4.3-2.8-2.6-12.1-4.1-14.7l-2,2.3c4.3,0.1,7.8,0.3,11.4,2.6c0.2,0.1,0.5,0.1,0.7,0
	c5.7-3.2-5.3-17.5-7.9-20.2c-9.4-9.7-24.7-3.7-30.7,6.7l2-1.4l-29.5-43.5c-0.2-0.3-0.8,0.1-1,0.2l-6.6,4.5c-0.5,0.4-1.6,1.5-1.1,2.2
	l31.6,46.5l0.3-1.3c-1.6,2.3-2.8,4.9-3.5,7.6C285.5,462.6,287.9,460.7,288.1,459.8L288.1,459.8z"/>
<path class="st0" d="M400.3,224.6c-0.2-36.3-1.4-71.3-3.3-104.8c-0.1-12.3-5.3-24-14.3-32.4c-1.5-1.4-3.1-2.8-4.8-4
	c-0.3-0.9-0.6-1.7-1-2.6c-5.4-13.6-0.5-25.5-5.6-31.2c-7.1,0.1-30.6,3.6-42.5,9c-6.3,2.9-12.2,6.7-17.5,11.3
	c-13.2-1.1-27-2-41.5-2.4c-9.3-2.2-18.5-5-27.4-8.5c-15.7-6.1-30.6-14.3-44.2-24.3l36.1,29.7c-5.9-1.7-12.1-3.7-18.5-6.2
	c-15.7-6.1-30.6-14.3-44.2-24.3l41,33.7c-10.1,0.4-19.9,1-29.3,1.7c-5.7-5.4-12.2-9.8-19.4-13c-11.9-5.4-35.5-8.9-42.5-9
	c-5.1,5.7-0.2,17.6-5.6,31.2c-0.2,0.6-0.5,1.2-0.7,1.8c-3.5,1.9-6.7,4.3-9.6,7c-9,8.4-14.1,20.1-14.3,32.4
	c-3.1,34.4-5.1,71.6-5.3,111.1v0.2c-0.2,44.8,1.8,86.5,5.3,124.8v2.2c0.4,6.7,2.3,13.3,5.6,19.2V377c2.3,4.1,5.2,7.8,8.6,11
	c13.9,13.1,31.1,13.5,34.4,13.5c36.8,3.6,73.8,5.2,110.8,5c35.1-0.2,67.7-2.1,97.5-5c12.8,0.1,25.1-4.8,34.4-13.5
	c3.8-3.6,6.9-7.7,9.3-12.3v0.3c3.2-6.2,4.9-13,5-20c2.1-36.4,3.3-74.5,3.4-114.2C400.4,236.1,400.4,230.4,400.3,224.6L400.3,224.6z"
	/>
<path class="st1" d="M404.1,227.8c-0.2-28.8-1-57.7-2.4-86.5c-0.6-11.8,0.3-24.6-4.5-35.7c-4.2-9.8-12.1-17.6-20.8-24.1l5.2,4.9
	c-2.9-7.9-3.7-15.3-3.9-23.6c-0.2-5.1-1-9.1-5-12.8c-1.5-1.3-3.3-3.3-5.4-3.6s-4.8,0.3-6.8,0.6c-6.4,0.8-12.8,1.9-19,3.3
	c-6.4,1.3-12.7,3.4-18.7,6.2c-3.5,1.8-6.8,3.8-10,6.1c-1.2,1-2.4,2-3.7,2.9c-2.4,1.4-4.9,0.9-7.5,0.7c-9.4-0.7-18.9-1.3-28.3-1.7
	c-9.5-0.4-18.2-3-27.1-6.1c-17.7-6.1-34.3-14.8-49.4-25.7c-4.6-3.4,0.9,2.2,2.1,3.2L235,65.7l-4.1-4.4c-21.8-6.1-42.3-16-60.7-29.3
	c-4.6-3.4,0.9,2.2,2.1,3.2l41,33.7l-4.3-4.4c-9.8,0.4-19.6,1-29.3,1.7l5.1,3.6c-8.7-8-18.6-15.1-30.2-18.9
	c-10.9-3.5-22.2-5.7-33.7-6.6c-1.9-0.2-2.8-0.5-3.9,1c-1.5,1.9-1.6,4.8-1.7,7c-0.4,6.6,0,13.2-1.9,19.7c-0.4,1.3-0.8,3.5-1.7,4.7
	s-3.1,2.2-4.5,3.2c-3.2,2.2-6.1,4.9-8.6,7.8c-4,4.6-7,10-8.8,15.9c-2.9,9.3-2.7,19.7-3.5,29.3c-1.2,15.6-2.2,31.3-2.8,46.9
	c-1.3,31.8-1.5,63.6-0.5,95.4c0.5,17.7,1.5,35.5,2.7,53.2c0.6,8.1,1.5,16.3,2,24.4c0.5,7.7,1.9,14.7,5.7,21.6
	c0.8,1.5,2.5,2.7,3.8,3.8c0.3,0.3,3.6,2.3,3.6,2.3v-0.2l-7.4-6.1c8.4,14.3,24,26.5,41.3,29.7c6.4,1.2,13.2,1.3,19.7,1.8
	c11.3,1,22.6,1.8,33.9,2.4c48.9,2.7,97.9,2.1,146.7-1.9c11.7-0.9,24.4-0.7,35.4-4.9c10.9-4.2,20-12.1,25.5-22.5l-7.4-6.3v0.3
	c0,1.5,7.4,6.4,7.4,6.3c4.8-9.9,5-19.7,5.6-30.3c0.7-13.1,1.2-26.2,1.7-39.3C403.9,282.3,404.3,255.1,404.1,227.8
	c0-1.2-2.5-2.8-3.3-3.6c-0.4-0.3-4.1-2.7-4.1-2.7c0.2,27.2-0.2,54.5-1.1,81.7c-0.4,13.1-1,26.2-1.7,39.3
	c-0.5,10.6-0.8,20.4-5.6,30.3l7.4,6.3v-0.3c0-1.5-7.3-6.5-7.4-6.3c-4.3,8.1-10.8,14.8-18.7,19.3c-8.1,4.6-16.5,6-25.8,6.6
	c-20.9,1.4-41.7,3.4-62.7,4.2c-44.3,1.7-88.7,0.6-132.9-3.2c-18.5-1.6-37.3-2-47.5-19.4c-1-1.5-2.3-2.7-3.8-3.8
	c-0.3-0.3-3.6-2.3-3.6-2.3v0.2l7.4,6.1c-7.2-13.3-6.4-29.4-7.5-43.9c-1.2-15.9-2-31.8-2.6-47.8c-1.2-33-1.2-65.9,0.1-98.9
	c0.6-16,1.5-32,2.8-47.9c0.8-10,0.5-20.9,3.4-30.7c1.7-6,4.7-11.6,8.6-16.3c2.3-2.8,4.9-5.2,7.8-7.4c1.5-1.1,3.6-2.1,5-3.3
	s1.8-3,2.3-4.7c2.1-6.8,1.7-13.6,2.2-20.5c0.1-2.2,0.2-5.2,1.7-7s3.6-1,5.7-0.8c13.4,1.4,28.1,3.8,40.1,9.9c3.9,2,7.6,4.4,11,7.3
	c1.7,1.4,3.6,3.8,5.9,4.4c1.7,0.4,4.5-0.3,6.2-0.5c2.4-0.2,4.8-0.3,7.2-0.5c5.3-0.3,10.5-0.6,15.8-0.8c-0.1,0-4.1-4.2-4.3-4.4
	l-41-33.7l2.1,3.2c19.5,14.3,41.4,25,64.6,31.7c-1.3-1.5-2.6-3-4.1-4.4l-36.1-29.7l2.1,3.2c12.2,9,25.4,16.5,39.3,22.6
	c8.5,3.7,17.2,6.8,26.1,9.2c9.6,2.7,19.4,2.5,29.4,3.1c4.9,0.3,9.9,0.6,14.8,1c1.5,0.1,4.3,0.8,5.7,0.4c1.2-0.3,3-2.5,4-3.2
	c5.7-4.4,12.1-7.8,18.9-10.1c12-4.1,24.5-6.4,37.1-6.9l-7.1-5.7c3.7,4.7,2.2,12.2,2.6,17.7s1.1,13.1,5.2,17.4c2.7,2.8,6.1,4.9,8.5,8
	c2.3,2.9,4.1,6.1,5.6,9.5c3,6.9,3.4,13.9,3.8,21.3c1.8,33.5,2.9,67,3.1,100.5c0,1.2,2.5,2.8,3.3,3.6
	C400.3,225.3,404.1,227.7,404.1,227.8L404.1,227.8z"/>
<path id="_Path_3" class="st3" d="M233,147c11.6,30.9,18.6,94.5-29.2,124.1c-42.3,26.2-97.9,13.1-124.1-29.2
	c-29.1-47,2.7-100.6,29.2-124.1c6.1-5.4,39.5-35.1,76.3-23.9C216.7,103.6,229.1,136.6,233,147L233,147z"/>
<path class="st1" d="M229.8,147c10.5,28.3,12.7,62.8,0.1,90.8c-17.2,37.9-63.3,55.3-101.8,41c-18.7-7-34.6-20-45.1-36.9
	c-11.8-19.1-14.2-41.7-8.6-63.2c8.4-32.3,31.7-61.8,61.3-77.4c11.6-6.1,25.4-11,38.6-9c11.6,1.9,22.4,7.2,31,15.2
	C216.8,118.2,224.2,132.4,229.8,147c0.4,1.1,6.3-0.3,6.4,0c-5.4-14.4-12.7-28.4-24-39.1c-14.9-14-34.8-18.8-54.7-16.2
	c-35.4,4.7-65.6,33.9-81,64.6c-10.7,21.3-15.3,46.2-7.6,69.3c7,20.9,23.1,38.6,42.6,48.7c34.5,18,82.4,13.5,110.1-14.9
	c28.3-28.9,28-76.7,14.7-112.5C235.8,145.9,229.8,147.2,229.8,147L229.8,147z"/>
<path id="_Path_4" class="st3" d="M254.6,150.8c-11.6,30.9-18.6,94.5,29.2,124.1c42.3,26.2,97.9,13.1,124.1-29.2
	c29.1-47-2.7-100.6-29.2-124.1c-6.1-5.4-39.5-35.1-76.3-23.9C270.9,107.3,258.5,140.3,254.6,150.8L254.6,150.8z"/>
<path class="st1" d="M251.4,150.8c-11.7,31.7-13.3,72,5.6,101.3c22.2,34.2,69.5,44.8,106.6,31.8c19.6-6.9,36.3-20.2,47.3-37.9
	c13.1-21.2,14.5-46.2,6.9-69.6c-11.2-34.2-38.9-65.7-73.3-77.6c-21.6-7.5-46.1-5.5-64.4,8.8C266.2,118.4,257.6,134.4,251.4,150.8
	c-0.2,0.6,5.8,1.7,6.4,0c4.9-12.9,11.1-25.4,20.6-35.5c15.4-16.5,37.1-23,58.8-16.2c31.9,9.9,58,38.2,70.8,68.3
	c8.5,20.1,11.2,42.9,3.7,63.7c-7,19.5-22.1,36.1-40.2,45.9c-35.6,19.3-83.1,10.7-106.8-23.2c-20.4-29.2-18.8-70.8-6.9-103
	C258.1,150.2,252,149.1,251.4,150.8L251.4,150.8z"/>
<path id="_Path_5" class="st3" d="M242.1,285c-51.2,0-96.5,86-85.5,117.4c0.1,0.3,0.3,0.7,0.4,1c26.8,2.3,55.8,3.6,86.9,3.4h0.4
	c0.2,0,0.4-0.1,0.5-0.1c0.3,0,0.5,0,0.8,0.1c29-0.2,56.2-1.8,81.3-4.2c0.2-0.5,0.4-1,0.6-1.5C338.6,369.9,293.3,285,242.1,285z"/>
<path class="st1" d="M243.1,284.4c-21.3,0.3-39.8,13.1-53.6,28.3c-15.9,17.4-28.5,39.6-34,62.7c-2.1,9.2-3.5,19.5,0,28.5
	c0.1,0.1,0.2,0.2,0.3,0.2c56.7,4.8,113.8,4.5,170.5-0.8c0.5,0,2-0.3,2.2-0.9c6.8-17.2-1.5-38.7-9-54.2c-9.9-20.6-24.7-40.6-44-53.2
	C265.7,288.6,254.8,284.5,243.1,284.4c-0.6,0-3.5,1.2-2,1.2c22.4,0.3,41.5,15.7,55.2,32.1s24.8,36.6,29.5,57.6
	c2,9,3.1,18.9-0.4,27.7l2.2-0.9c-27.4,2.6-54.9,3.8-82.4,4.1c-14.5,0.2-29-0.1-43.4-0.7c-6.5-0.3-13-0.6-19.5-1
	c-3.2-0.2-6.3-0.4-9.5-0.6c-4-0.3-9,0.2-12.7-1c-5-1.6-3.8-13.3-3.4-17.4c0.8-7.8,2.6-15.4,5.3-22.7c6-16.7,14.8-32.3,26.2-45.9
	c13.1-15.8,31.3-31.2,52.8-31.4C241.7,285.5,244.6,284.3,243.1,284.4L243.1,284.4z"/>
<g class="st4">
	<ellipse id="_Path_6" class="st5" cx="160.9" cy="191.4" rx="23.7" ry="39.9"/>
	<g class="st6">
		<path class="st7" d="M180.8,209.6l0.4-1c-0.3-0.1-0.6-0.3-0.7-0.6c0-1.3-1,2.6-2.9,6.5c0.2,0.2,0.5,0,1.1-0.7
			C179.6,212.5,180.3,211.1,180.8,209.6z"/>
		<path class="st8" d="M188.8,193.1l-0.3-1.7c0,0.1,0,0.1-0.1,0.2L188.8,193.1z"/>
		<path class="st7" d="M184.8,197.3c-0.4,2.8-0.5,4.6-0.8,6.7c0.3-0.9,0.8-1.7,1.3-2.5c0.6-1,1-2,1.4-3.1c0-0.9,0-2.3,0.1-3.5
			c-0.1,0.5-0.2,1-0.1,1.5c0-0.9-0.1-2.6-0.1-2.6c-0.3,0.4-0.7,3.9-1,6.2c0-1.4,0-3.4-0.1-5l-0.4,1.3l-0.2,1.8L184.8,197.3
			L184.8,197.3z M170.1,220.5l0.5-0.3c0.3-0.7,0.7-1.4,1.1-2.2c-0.5,0.5-1,0.9-1.5,1.3c-0.2,0.3-0.4,0.7-0.7,1.1h-0.2
			c0-0.2,0.1-0.4,0.2-0.6h-0.1c-0.3,0.2-0.6,0.4-0.9,0.6l0.4-0.1c-0.7,0.8-1.6,1.3-1.6,1.7C167.6,222.2,169,221.4,170.1,220.5
			L170.1,220.5z"/>
		<path class="st9" d="M157,223.8c0,0.3-0.2,0.6-0.6,0.8c1.1,0.4,2.4,1.3,3.5,1.2c-0.3,0.3-0.1,0.8,0.5,1.1c0.9,0.4,2,0.6,3,0.6
			c1.3-0.1,2.6-0.4,3.9-0.8c1.2-0.5,2.2-1,2.9-1.2c2-0.9,3.7-2.3,5.1-3.9c1.6-1.8,3.1-3.8,4.5-5.8c0.1-0.8,0.2-1.6,0.5-2.4
			c-0.6,1-1.1,2.1-1.6,3.2l-0.3,0.7l0.3-0.7l1.1-2.9c-0.2,0.3-0.3,0.6-0.4,0.4c0-0.2,0.1-0.5,0.2-0.7c-2.1,3.3-4.5,5.7-5.6,5.2
			c-0.2,0.3-0.4,0.6-0.6,0.8c-0.8,1.1-1.8,2.1-3,2.9c-0.7,0.4-1,0.4-1.2,0.2c-1.4,1.4-3.1,2.4-5,2.9c-1.9,0.4-3.8,0-5.4-1
			c-0.6,0-1.1-0.1-1.7-0.2L157,223.8z"/>
		<path class="st10" d="M185.6,191.4c0.8-0.5,1.8-3.3,2.1-7.4c0.3-5-0.4-10.1-2.1-14.9c-1.8-5.8-4.9-11.1-9-15.6
			c-2.4-2.5-5.2-4.5-8.4-5.8c-3.5-1.5-7.4-1.8-11.2-1.1c0.4,0,0.7,0.1,1,0.4c0.1,0.2-0.1,0.4-0.5,0.7c-0.8,0.6-2.7,1.3-5.1,2.8
			c-1.5,0.9-3,1.9-4.4,3c-1.1,0.8-2,1.7-2.8,2.8c-1.4,2-2.6,4.2-3.4,6.5c-0.8,2-1.5,4.1-2.6,7.6c0.7-1.1,1.2-1.1,1.8-2.4
			c1-1.7,2.1-3.6,3.5-5.7c1.5-2.3,3.1-4.5,4.9-6.6c0.6-0.7,1.5-1.2,2.3-1.4c0.6-0.1,0.6,0.2-0.8,1.4c3.9-2.8,7.1-4.1,10.8-4
			c1.1,0,2.1,0.2,3.1,0.5c0.6,0.2,1.2,0.4,1.7,0.7c0.7,0.5,0.8,0.8,0.7,1c-0.2,0.4-1.2,0.7-0.1,1.8c0.4,0.5,0.9,1.1,1.4,1.5
			c2.8,1.7,5.3,3.8,7.3,6.4c2.1,2.7,3.9,5.6,5.3,8.8c0.7,1.5,0.9,4,1.4,5.5c0.8,3,1.5,6.5,2,9.3S185.2,191.8,185.6,191.4
			L185.6,191.4z"/>
		<path class="st11" d="M132.3,187.3c-0.1-2.2-0.1-4.5,0.2-6.7c-0.8,3.4-1.4,6.9-1.8,10.4c0.2,0.9,0.4,1.9,0.6,2.8
			C131.3,191.6,131.6,189.4,132.3,187.3z"/>
		<path class="st11" d="M161.5,154.9c0.4-0.4,0-0.6-0.7-0.9c-0.9-0.2-1.9-0.3-2.8-0.4c-1.8,0.7-3.4,1.6-5,2.6
			c-1.4,0.9-2.6,1.7-3.8,2.4c0,0.3-1.4,1.7-1.8,2.4c0-0.3-1.4,0.9-0.6-0.5c-0.8,1.4-2.1,2.7-2.3,3.8c-1.5,2.2,0.5-2.1-0.7-0.7
			c-1.8,4.4-3.3,8.3-4.4,10.8s-2,3.4-2.1,1.6c-0.2-1.4,0.3-4,0.1-5.7c0.1-1.5,0.5-2.9,1.2-4.2c0.9-1.8,1.9-3.6,3.1-5.2
			c-1,0.6-3.6,5.4-2.7,2.5c0.5-1.4,1.2-2.8,1.8-4.1s1.3-2.6,1.8-3.5c-2.6,3.4-4.7,7.2-6.1,11.2c-1.4,3.7-2.2,7.1-2.8,9.1
			c-0.5,1.6-0.9,3.1-1.3,4.7c-0.2,2.2-0.3,4.5-0.2,6.7c-0.7,2.1-1,4.3-1,6.6c0.1,0.9,0.4,1.7,0.7,2.5c0.5,1.2,0.5-0.5,0.6-2.9
			c0-2.2,0.3-4.3,0.8-6.4c-0.1,4.9,0.6,7.8,1.2,9s1.2,0.7,1.7-0.9c0.6-2.3,1-4.7,1.8-8.5c0.3-2,0.7-4.8,0.9-7.3
			c-0.1,0.8-0.2,3.3,0,2.7c0.5-1.9,1.1-3.7,1.9-5.5c0.7-1.7,1.3-3.5,2.3-6.3c0.1,0.3,0.4-0.2,0,1.3c0.4-1.5,0.7-1.8,1-2
			s0.6-0.4,1.1-1.9c0.5-0.4,1.1-0.7,1.6-0.9c1-0.7,1.7-1.6,2.3-2.7c0.2-0.4,0.5-0.8,0.8-1.2c0.2-0.3,0.5-0.6,0.8-0.9
			c1.5-2.5,3.7-4.5,6.4-5.7c2-0.8,4.1-1,6.2-0.7C162.8,155.4,162.1,155.2,161.5,154.9L161.5,154.9z"/>
		<path class="st12" d="M167,155.7c-1.1-1.1-0.2-1.3,0.1-1.8c0.1-0.2,0-0.5-0.7-1c-0.5-0.3-1.1-0.6-1.7-0.7c-1-0.3-2-0.5-3.1-0.5
			c-3.7-0.1-6.9,1.2-10.8,4c1.5-1.3,1.5-1.6,0.8-1.4c-0.9,0.3-1.7,0.8-2.3,1.4c-1.8,2.1-3.4,4.2-4.9,6.6c-1.3,2.1-2.5,4-3.5,5.7
			c-0.6,1.3-1.1,1.3-1.8,2.4c1.1-3.5,1.8-5.6,2.6-7.6c0.9-2.3,2-4.5,3.4-6.5c0.8-1.1,1.7-2,2.8-2.8c1.4-1.1,2.9-2.1,4.4-3
			c2.5-1.6,4.3-2.3,5.1-2.8c0.4-0.3,0.6-0.5,0.5-0.7c-0.3-0.3-0.6-0.4-1-0.4c-2.6,0.5-5.2,1.5-7.4,3c-2.2,1.4-4.1,3.1-5.8,5
			c-0.3,0.3-0.6,0.7-0.9,1.1c-0.5,1-1.2,2.2-1.8,3.5s-1.3,2.8-1.8,4.1c-1,2.9,1.7-1.9,2.7-2.5c-1.2,1.7-2.2,3.4-3.1,5.2
			c-0.7,1.3-1.1,2.8-1.2,4.2c0.1,1.8-0.3,4.3-0.1,5.7c0.1,1.8,1,0.9,2.1-1.6s2.6-6.4,4.4-10.8c1.2-1.4-0.8,2.9,0.7,0.7
			c0.2-1.1,1.5-2.4,2.3-3.8c-0.8,1.4,0.5,0.2,0.5,0.5c0.4-0.7,1.8-2.1,1.8-2.4c1.2-0.7,2.4-1.5,3.8-2.4c1.6-1.1,3.2-1.9,5-2.6
			c0.9,0.1,1.9,0.2,2.8,0.4c0.7,0.2,1.1,0.5,0.7,0.9c0.7,0.2,1.4,0.4,2.1,0.5c1.7,0.3,3.3,0.9,4.8,1.7
			C167.8,156.7,167.4,156.2,167,155.7L167,155.7z"/>
		<path class="st13" d="M149.3,164c-0.5,1.1-1.3,2-2.2,2.7c-0.6,0.2-1.1,0.5-1.6,0.9c-0.5,1.5-0.8,1.7-1.1,1.9s-0.6,0.4-1,2
			c0.4-1.5,0.1-1,0-1.3c-0.9,2.8-1.6,4.7-2.3,6.3c-0.8,1.8-1.4,3.6-1.9,5.5c-0.2,0.6-0.1-1.9,0-2.7c-0.2,2.5-0.6,5.3-0.9,7.3
			c-0.8,3.8-1.2,6.2-1.8,8.5c-0.5,1.6-1.1,2.1-1.7,0.9s-1.3-4-1.2-9c-0.5,2.1-0.8,4.3-0.8,6.4c-0.1,2.3-0.1,4.1-0.6,2.9
			c-0.4-0.8-0.6-1.6-0.8-2.4c0,3.7,0.4,7.4,1.2,11c0.9,3.8,2.1,7.5,3.6,11.1c0.4,0.1,0.5-0.2,0.2-1.3c-0.4-1.4-0.6-2.8-0.6-4.2
			c0-0.6,0.2-1.2,0.5-1.7c0.4-0.8,0.9-1.3,0.9-4.5c0-1.3-0.4-4.8-0.3-5.4c0.5-2.9,1.7,0.2,2.3-2.6c0.1-0.7,0-1.5-0.1-2.2
			c-0.1-0.9-0.1-1.8,0.1-2.6c0.6-1.5,1.4-0.7,1.7-4c0.4-3.2,1.3-6.4,2.7-9.3c0.9-1.7,2-3.3,3.2-4.8c0.7-4,2.1-7.8,4.2-11.3
			c-0.3,0.3-0.5,0.6-0.8,0.9C149.8,163.2,149.6,163.6,149.3,164L149.3,164z"/>
		<path class="st14" d="M184.3,226c1.2-2,2.3-4,3.2-6.2c-1.9,3.5-4.3,6.6-7.3,9.2c-1.9,1.7-4.1,2.9-6.5,3.7c-0.3,0.1-1.4,0.8-3,1.7
			c-2,1-4.2,1.7-6.4,2.1c-2.3,0.4-4.7,0.3-7-0.3c-1.4-0.3-2.7-0.8-3.8-1.7c0.9,0,1.8,0.1,2.6,0.4c1.7,0.3,3.4,0.4,5.2,0.3
			c-2.9-0.1-5.7-1.1-8-2.8c-1.4-1-2.5-2.3-3.5-3.7c-0.7-1.2-1.4-2.4-2-3.7c-0.7-1.3-1.4-2.8-2.3-4.9c-1.6-3.5-2.4-7.3-2.5-11.1
			c0-3,0.6-5.1,1.4-5.7c0.4-0.2,0.4-1.6,0.4-3.6c0-2.2,0.1-4.4,0.3-6.6c-0.2-1.7-0.5-3.5-0.6-5.2c-0.6,2.4-1.1,4.6-1.6,5.2
			c-1.2,1.2-1.9,2.8-2.1,4.4c-0.5,3.5-0.5,7.1,0.2,10.5c0.6,3.2-1.6,1.3-1.4,3.2c0.3,3.1,0.8,6.1,1.4,9.1c0.5,2.6,1.4,5.2,2.5,7.7
			c1,2.1,2.3,4,4,5.6c2.4,1.8,5.2,3.1,8.1,3.8c3.1,0.8,6.3,0.9,9.5,0.3c1.9-0.4,3.7-1,5.4-1.8c1.4-0.7,2.5-1.3,3.4-1.8l3.9-2.2
			c1-0.5,1.9-1.1,2.8-1.8C182.2,229,183.4,227.5,184.3,226z"/>
		<path class="st15" d="M140.8,187.3c-0.4,3.3-1.1,2.4-1.7,4c-0.2,0.9-0.2,1.8-0.1,2.6c0.1,0.7,0.1,1.5,0.1,2.2
			c-0.6,2.8-1.7-0.3-2.3,2.6c-0.1,0.6,0.2,4.2,0.3,5.4c0,3.2-0.4,3.7-0.9,4.5c-0.3,0.5-0.5,1.1-0.5,1.7c0,1.4,0.2,2.9,0.6,4.2
			c0.3,1.1,0.2,1.4-0.2,1.3v0.1c-0.5-0.4-0.3,0.4,0.1,1.5c0.4,1,0.8,2,1.3,3c1.1,2.1,2.3,4.2,3.6,6.1c1.2,1.8,2.6,3.6,4.1,5.1
			c0.8,0.7,1.6,1.4,2.4,2c-1.7-1.6-3-3.5-4-5.6c-1.1-2.5-1.9-5-2.5-7.7c-0.7-3-1.1-6-1.4-9.1c-0.2-1.8,1.9,0,1.4-3.2
			c-0.7-3.5-0.8-7-0.2-10.5c0.2-1.7,0.9-3.2,2.1-4.4c0.5-0.6,1-2.7,1.6-5.2c-0.1-1.5-0.1-2.9,0-4.4c0.1-1.2,0.4-2.4,0.9-3.5
			c0.4-2.6,0.8-4.8,1.2-6.9c-1.2,1.5-2.3,3.1-3.2,4.8C142.1,181,141.2,184.1,140.8,187.3L140.8,187.3z"/>
		<path class="st16" d="M190.2,213.1l0.9-3.9c0.7-3.5,0.9-2.9,1.3-4.5l-0.2,0.7c0.1-0.4,0.2-0.7,0.2-1.1c-0.7,1.5-1.5,2.4-2,2.2
			c-0.3,1.5-0.8,3-1.5,4.4c-1.6,2.3-3.1,3.9-5.1,6.5c-1,1.3-2.2,2.8-3.8,4.7c-1.9,2.4-4.1,4.6-6.5,6.5c-2.5,1.9-2.6,1.1-3,0.6
			c-0.3-0.3-0.7-0.5-1.1-0.4c-1.2,0.3-2.4,0.6-3.6,1c-1.5,0.4-3.1,0.7-4.7,0.6c-1.6-0.1-2.9-0.5-3.2-0.9s0.7-0.7,1-1.1
			s0-0.7-1.8-1.6c-2.2-1.2-4.1-2.9-5.4-5c-1.2-1.8-2.2-3.8-2.8-5.9c-1.1-3.8-0.9-6.6-0.2-7.6c-1.6-4.9-2.8-10-3.8-15.1
			c-0.2,2.2-0.3,4.4-0.3,6.6c0,1.9,0,3.4-0.4,3.6c-0.9,0.6-1.4,2.6-1.4,5.7c0.1,3.8,0.9,7.6,2.5,11.1c0.9,2,1.7,3.5,2.3,4.9
			c0.6,1.3,1.3,2.5,2,3.7c0.9,1.4,2.1,2.7,3.5,3.7c2.3,1.7,5.1,2.7,8,2.8c-1.7,0.1-3.5,0-5.2-0.3c-0.9-0.2-1.8-0.3-2.6-0.4
			c1.1,0.9,2.4,1.4,3.8,1.7c2.3,0.5,4.7,0.6,7,0.3c2.2-0.4,4.4-1.1,6.4-2.1c1.6-0.8,2.7-1.6,3-1.7c2.4-0.8,4.6-2.1,6.5-3.7
			c3-2.6,5.5-5.7,7.3-9.2C188.6,217.5,189.5,215.2,190.2,213.1L190.2,213.1z"/>
		<path class="st17" d="M157.3,226.8c1.8,0.9,2,1.1,1.8,1.6s-1.1,0.7-1,1.1s1.6,0.8,3.2,0.9c1.6,0,3.2-0.2,4.7-0.6
			c1.2-0.4,2.4-0.7,3.6-1c0.4-0.1,0.9,0,1.1,0.4c0.4,0.5,0.5,1.2,3-0.6c2.4-1.9,4.6-4.1,6.5-6.5c1.6-1.9,2.7-3.4,3.8-4.7
			c2-2.6,3.5-4.1,5.1-6.5c0.7-1.4,1.2-2.9,1.5-4.4c-0.3-0.2-0.5-0.5-0.5-0.8c-0.1-0.3-0.6,1-1.3,2.6c-0.6,1.6-1.4,3.2-2.2,4.8
			c-1.3,1.2-0.6-2.2-0.4-5.5v-1.5l0.1-0.2v-1.2c-0.4,1-0.8,2-1.2,2.9c-0.1,0.4-0.2,0.8-0.4,1.1l0.1-0.6c-0.5,1-1.1,2-1.8,2.9
			c-0.7,0.7-1.2,1.5-1.7,2.3c-0.2,0.5-0.4,1-0.6,1.5c0.2-0.4,0.3-0.7,0.4-1.1c-1.3,2.1-2.6,4.2-4.1,6.1c-1.3,1.8-2.9,3.3-4.8,4.4
			c-0.6,0.3-1.6,0.9-2.8,1.5c-1.2,0.7-2.5,1.2-3.9,1.5c-1,0.3-2.1,0.3-3.1,0c-0.7-0.2-1-0.6-0.7-1c-1.1,0.3-2.5-0.4-3.6-0.6
			c0.3-0.2,0.4-0.5,0.4-0.9c-0.8-0.4-1.4-1.1-1.9-1.8c0.3-0.1,1,0.4,1.7,0.8l-0.1-0.3l-0.2-0.2l-1.3-0.5c-0.6-0.1-1.2-0.3-1.8-0.5
			c0.2,0,0.5,0,0.7,0.1l1,0.4c0.3,0,0.5,0,0.8,0c-0.9-0.9-1.7-1.8-2.4-2.8c-0.2-0.2-0.5-0.4-0.7-0.5c0.2,0.1,0.4,0.3,0.6,0.5
			c-0.1-0.2-0.2-0.3-0.4-0.5c-0.7-0.5-1.3-1.1-1.9-1.7c-0.9-0.9-1.7-1.9-2.4-2.9c-0.2-2.1-0.6-4.2-1.2-6.2c-0.8,1-0.9,3.8,0.2,7.6
			c0.6,2.1,1.6,4.1,2.8,5.9C153.1,223.9,155,225.6,157.3,226.8L157.3,226.8z"/>
	</g>
</g>
<path id="_Path_7" class="st18" d="M170.7,190.6c-4.7,0-8.5-6.3-8.5-14c0-3,0.6-6,1.9-8.7c-1.2-0.5-2.5-0.8-3.8-0.8
	c-8.6,0-15.5,11.4-15.5,25.5s7,25.5,15.5,25.5s15.5-11.4,15.5-25.5c0-1.5-0.1-3-0.2-4.4C174.4,189.6,172.6,190.5,170.7,190.6z"/>
<path class="st19" d="M171.3,189.7c-9.3-0.9-8.1-16.3-5.7-22c0.2-0.4-0.4-0.6-0.6-0.7c-8.7-2.7-15.5,3.2-18.9,10.8
	c-4.6,10.5-4.2,24.9,2.5,34.5c4.4,6.3,12.1,8.7,18.7,4.2c8.9-6,10.7-19,9.8-28.8c-0.1-1.1-2.4-0.2-2.8,0.1l-3.4,1.8
	c-1.5,0.2-2.6,2-0.4,1.8c2.4-0.3,4.6-1.3,6.3-3.1l-2.8,0.1c0.8,8.4-1.3,29.1-13.7,28.5c-11.3-0.5-14.4-17.8-14-26.4
	c0.1-5.4,1.5-10.7,4.1-15.4c1.2-2.4,3-4.4,5.3-5.8c1.5-0.9,5.2-2.8,6.2,0.2c0.2,0.6-0.8,2.7-0.9,3.4c-1.2,6.9,0.8,17.7,9.2,18.5
	C171.4,191.6,173.4,189.9,171.3,189.7L171.3,189.7z"/>
<g class="st4">
	<ellipse id="_Path_8" class="st5" cx="324" cy="193.9" rx="23.7" ry="39.9"/>
	<g class="st6">
		<path class="st7" d="M344,212.1l0.4-1c-0.3-0.1-0.6-0.3-0.7-0.6c0-1.3-1,2.6-2.9,6.5c0.2,0.2,0.5,0,1.1-0.7
			C342.7,215,343.4,213.6,344,212.1z"/>
		<path class="st8" d="M352,195.6l-0.3-1.7c0,0.1,0,0.1-0.1,0.2L352,195.6z"/>
		<path class="st7" d="M347.9,199.9c-0.4,2.8-0.5,4.6-0.8,6.7c0.3-0.9,0.8-1.7,1.3-2.5c0.6-1,1-2,1.4-3.1c0-0.9,0-2.3,0.1-3.5
			c-0.1,0.5-0.2,1-0.1,1.5c0-0.9-0.1-2.6-0.1-2.6c-0.3,0.4-0.7,3.9-1,6.2c0-1.4,0-3.4-0.1-5l-0.4,1.3l-0.2,1.8L347.9,199.9
			L347.9,199.9z M333.2,223l0.5-0.3c0.3-0.7,0.7-1.4,1.1-2.2c-0.5,0.5-1,0.9-1.5,1.3c-0.2,0.3-0.4,0.7-0.7,1.1h-0.2
			c0-0.2,0.1-0.4,0.2-0.6h-0.1c-0.3,0.2-0.6,0.4-0.9,0.6l0.4-0.1c-0.7,0.8-1.6,1.3-1.6,1.7C330.8,224.8,332.1,223.9,333.2,223
			L333.2,223z"/>
		<path class="st9" d="M320.1,226.3c0,0.3-0.2,0.6-0.6,0.8c1.1,0.4,2.4,1.3,3.5,1.2c-0.3,0.3-0.1,0.8,0.5,1.1c0.9,0.4,2,0.6,3,0.6
			c1.3-0.1,2.6-0.4,3.9-0.8c1.2-0.5,2.2-1,2.9-1.2c2-0.9,3.7-2.3,5.1-3.9c1.6-1.8,3.1-3.8,4.5-5.8c0.1-0.8,0.2-1.6,0.5-2.4
			c-0.6,1-1.1,2.1-1.6,3.2l-0.3,0.7l0.3-0.7l1.1-2.9c-0.2,0.3-0.3,0.6-0.4,0.4c0-0.2,0.1-0.5,0.2-0.7c-2.1,3.3-4.5,5.7-5.6,5.2
			c-0.2,0.3-0.4,0.6-0.6,0.8c-0.8,1.1-1.8,2.1-3,2.9c-0.7,0.4-1,0.4-1.2,0.2c-1.4,1.4-3.1,2.4-5,2.9c-1.9,0.4-3.8,0-5.4-1
			c-0.6,0-1.1-0.1-1.7-0.2L320.1,226.3z"/>
		<path class="st10" d="M348.7,193.9c0.8-0.5,1.8-3.3,2.1-7.4c0.3-5-0.4-10.1-2.1-14.9c-1.8-5.8-4.9-11.1-9-15.6
			c-2.4-2.5-5.2-4.5-8.4-5.8c-3.5-1.5-7.4-1.8-11.2-1.1c0.4,0,0.7,0.1,1,0.4c0.1,0.2-0.1,0.4-0.5,0.7c-0.8,0.6-2.7,1.3-5.1,2.8
			c-1.5,0.9-3,1.9-4.4,3c-1.1,0.8-2,1.7-2.8,2.8c-1.4,2-2.6,4.2-3.4,6.5c-0.8,2-1.5,4.1-2.6,7.6c0.7-1.1,1.2-1.1,1.8-2.4
			c1-1.7,2.1-3.6,3.5-5.7c1.5-2.3,3.1-4.5,4.9-6.6c0.6-0.7,1.5-1.2,2.3-1.4c0.6-0.1,0.6,0.2-0.8,1.4c3.9-2.8,7.1-4.1,10.8-4
			c1.1,0,2.1,0.2,3.1,0.5c0.6,0.2,1.2,0.4,1.7,0.7c0.7,0.5,0.8,0.8,0.7,1c-0.2,0.4-1.2,0.7-0.1,1.8c0.4,0.5,0.9,1.1,1.4,1.5
			c2.8,1.7,5.3,3.8,7.3,6.4c2.1,2.7,3.9,5.6,5.3,8.8c0.7,1.5,0.9,4,1.4,5.5c0.8,3,1.5,6.5,2,9.3S348.4,194.3,348.7,193.9
			L348.7,193.9z"/>
		<path class="st11" d="M295.5,189.8c-0.1-2.2-0.1-4.5,0.2-6.7c-0.8,3.4-1.4,6.9-1.8,10.4c0.2,0.9,0.4,1.9,0.5,2.8
			C294.4,194.2,294.8,191.9,295.5,189.8L295.5,189.8z"/>
		<path class="st11" d="M324.6,157.5c0.4-0.4,0-0.6-0.7-0.9c-0.9-0.2-1.9-0.3-2.8-0.4c-1.8,0.7-3.4,1.6-5,2.6
			c-1.4,0.9-2.6,1.7-3.8,2.4c0,0.3-1.4,1.7-1.8,2.4c0-0.3-1.4,0.9-0.5-0.5c-0.8,1.4-2.1,2.7-2.3,3.8c-1.5,2.2,0.5-2.1-0.7-0.7
			c-1.8,4.4-3.3,8.3-4.4,10.8s-2,3.4-2.1,1.6c-0.2-1.4,0.3-4,0.1-5.7c0.1-1.5,0.5-2.9,1.2-4.2c0.9-1.8,1.9-3.6,3.1-5.2
			c-1,0.6-3.6,5.4-2.7,2.5c0.5-1.4,1.2-2.8,1.8-4.1s1.3-2.6,1.8-3.5c-2.6,3.4-4.7,7.2-6.1,11.2c-1.4,3.7-2.2,7.1-2.8,9.1
			c-0.5,1.6-0.9,3.1-1.3,4.7c-0.2,2.2-0.3,4.5-0.2,6.7c-0.7,2.1-1,4.3-1,6.6c0.2,0.8,0.4,1.7,0.8,2.4c0.5,1.2,0.5-0.5,0.6-2.9
			c0-2.2,0.3-4.3,0.8-6.4c-0.1,4.9,0.6,7.8,1.2,9s1.2,0.7,1.7-0.9c0.6-2.3,1-4.7,1.8-8.5c0.3-2,0.7-4.8,0.9-7.3
			c-0.1,0.8-0.2,3.3,0,2.7c0.5-1.9,1.1-3.7,1.9-5.5c0.7-1.7,1.3-3.5,2.3-6.3c0.1,0.3,0.4-0.2,0,1.3c0.4-1.5,0.7-1.8,1-2
			s0.6-0.4,1.1-1.9c0.5-0.4,1.1-0.7,1.6-0.9c0.9-0.7,1.7-1.6,2.2-2.7c0.2-0.4,0.5-0.8,0.8-1.2c0.2-0.3,0.5-0.6,0.8-0.9
			c1.5-2.5,3.7-4.5,6.4-5.7c2-0.8,4.1-1,6.2-0.7C326,157.9,325.3,157.7,324.6,157.5z"/>
		<path class="st12" d="M330.1,158.2c-1.1-1.1-0.2-1.3,0.1-1.8c0.1-0.2,0-0.5-0.7-1c-0.5-0.3-1.1-0.6-1.7-0.7c-1-0.3-2-0.5-3.1-0.5
			c-3.7-0.1-6.9,1.2-10.8,4c1.5-1.3,1.5-1.6,0.8-1.4c-0.9,0.3-1.7,0.8-2.3,1.4c-1.8,2.1-3.4,4.2-4.9,6.6c-1.3,2.1-2.5,4-3.5,5.7
			c-0.6,1.3-1.1,1.3-1.8,2.4c1.1-3.5,1.8-5.6,2.6-7.6c0.9-2.3,2-4.5,3.4-6.5c0.8-1.1,1.7-2,2.8-2.8c1.4-1.1,2.9-2.1,4.4-3
			c2.5-1.6,4.3-2.3,5.1-2.8c0.4-0.3,0.6-0.5,0.5-0.7c-0.3-0.3-0.6-0.4-1-0.4c-2.6,0.5-5.2,1.5-7.4,3c-2.2,1.4-4.1,3.1-5.8,5
			c-0.3,0.3-0.6,0.7-0.9,1.1c-0.5,1-1.2,2.2-1.8,3.5s-1.3,2.8-1.8,4.1c-1,2.9,1.7-1.9,2.7-2.5c-1.2,1.7-2.2,3.4-3.1,5.2
			c-0.7,1.3-1.1,2.8-1.2,4.2c0.1,1.8-0.3,4.3-0.1,5.7c0.1,1.8,1,0.9,2.1-1.6s2.6-6.4,4.4-10.8c1.2-1.4-0.8,2.9,0.7,0.7
			c0.2-1.1,1.5-2.4,2.3-3.8c-0.8,1.4,0.5,0.2,0.5,0.5c0.4-0.7,1.8-2.1,1.8-2.4c1.2-0.7,2.4-1.5,3.8-2.4c1.6-1.1,3.2-1.9,5-2.6
			c0.9,0.1,1.9,0.2,2.8,0.4c0.7,0.2,1.1,0.5,0.7,0.9c0.7,0.2,1.4,0.4,2.1,0.5c1.7,0.3,3.3,0.9,4.8,1.7
			C330.9,159.2,330.5,158.7,330.1,158.2L330.1,158.2z"/>
		<path class="st13" d="M312.4,166.6c-0.5,1.1-1.3,2-2.2,2.7c-0.6,0.2-1.1,0.5-1.6,0.9c-0.5,1.5-0.8,1.7-1.1,1.9s-0.6,0.4-1,2
			c0.4-1.5,0.1-1,0-1.3c-0.9,2.8-1.6,4.7-2.3,6.3c-0.8,1.8-1.4,3.6-1.9,5.5c-0.2,0.6-0.1-1.9,0-2.7c-0.2,2.5-0.6,5.3-0.9,7.3
			c-0.8,3.8-1.2,6.2-1.8,8.5c-0.5,1.6-1.1,2.1-1.7,0.9s-1.3-4-1.2-9c-0.5,2.1-0.8,4.3-0.8,6.4c-0.1,2.3-0.1,4.1-0.6,2.9
			c-0.4-0.8-0.6-1.6-0.8-2.4c0,3.7,0.4,7.4,1.2,11c0.9,3.8,2.1,7.5,3.6,11.1c0.4,0.1,0.5-0.2,0.2-1.3c-0.4-1.4-0.6-2.8-0.6-4.2
			c0-0.6,0.2-1.2,0.5-1.7c0.5-0.8,0.9-1.3,0.9-4.5c0-1.3-0.4-4.8-0.3-5.4c0.5-2.9,1.7,0.2,2.3-2.6c0.1-0.7,0-1.5-0.1-2.2
			c-0.1-0.9-0.1-1.8,0.1-2.6c0.6-1.5,1.4-0.7,1.7-4c0.4-3.2,1.3-6.4,2.7-9.3c0.9-1.7,2-3.3,3.2-4.8c0.7-4,2.1-7.8,4.2-11.3
			c-0.3,0.3-0.5,0.6-0.8,0.9C313,165.7,312.7,166.1,312.4,166.6L312.4,166.6z"/>
		<path class="st14" d="M347.4,228.5c1.2-2,2.3-4,3.2-6.2c-1.9,3.5-4.3,6.6-7.3,9.2c-1.9,1.7-4.1,2.9-6.5,3.7
			c-0.3,0.1-1.4,0.8-3,1.7c-2,1-4.2,1.7-6.4,2.1c-2.3,0.4-4.7,0.3-7-0.3c-1.4-0.3-2.7-0.8-3.8-1.7c0.9,0,1.8,0.1,2.6,0.4
			c1.7,0.3,3.4,0.4,5.2,0.3c-2.9-0.1-5.7-1.1-8-2.8c-1.4-1-2.5-2.3-3.5-3.7c-0.7-1.2-1.4-2.4-2-3.7c-0.7-1.3-1.4-2.8-2.3-4.9
			c-1.6-3.5-2.4-7.3-2.5-11.1c0-3,0.6-5.1,1.5-5.7c0.4-0.2,0.4-1.6,0.4-3.6c0-2.2,0.1-4.4,0.3-6.6c-0.2-1.7-0.5-3.5-0.6-5.2
			c-0.6,2.4-1,4.6-1.6,5.2c-1.2,1.2-1.9,2.8-2.1,4.4c-0.5,3.5-0.5,7.1,0.2,10.5c0.5,3.2-1.6,1.3-1.4,3.2c0.3,3.1,0.8,6.1,1.4,9.1
			c0.5,2.6,1.4,5.2,2.5,7.7c1,2.1,2.3,4,4,5.6c2.4,1.8,5.2,3.1,8.1,3.8c3.1,0.8,6.3,0.9,9.5,0.3c1.9-0.4,3.7-1,5.4-1.8
			c1.4-0.7,2.5-1.3,3.4-1.8l3.9-2.2c1-0.5,1.9-1.1,2.8-1.8C345.4,231.5,346.5,230.1,347.4,228.5z"/>
		<path class="st15" d="M303.9,189.9c-0.4,3.3-1.1,2.4-1.7,4c-0.2,0.9-0.2,1.8-0.1,2.6c0.1,0.7,0.1,1.5,0.1,2.2
			c-0.6,2.8-1.7-0.3-2.3,2.6c-0.1,0.6,0.2,4.2,0.3,5.4c0,3.2-0.4,3.7-0.9,4.5c-0.3,0.5-0.5,1.1-0.5,1.7c0,1.4,0.2,2.9,0.6,4.2
			c0.3,1.1,0.2,1.4-0.2,1.3v0.1c-0.5-0.4-0.3,0.4,0.1,1.5c0.4,1,0.8,2,1.3,3c1.1,2.1,2.3,4.2,3.6,6.1c1.2,1.8,2.6,3.6,4.1,5.1
			c0.8,0.7,1.6,1.4,2.4,2c-1.7-1.6-3-3.5-4-5.6c-1.1-2.5-1.9-5-2.5-7.7c-0.7-3-1.1-6-1.4-9.1c-0.2-1.8,1.9,0,1.4-3.2
			c-0.7-3.5-0.8-7-0.2-10.5c0.2-1.7,0.9-3.2,2.1-4.4c0.5-0.6,1-2.7,1.6-5.2c-0.1-1.5-0.1-2.9,0-4.4c0.1-1.2,0.4-2.4,0.9-3.5
			c0.4-2.6,0.8-4.8,1.2-6.9c-1.2,1.5-2.3,3.1-3.2,4.8C305.2,183.5,304.3,186.7,303.9,189.9L303.9,189.9z"/>
		<path class="st16" d="M353.4,215.6l0.9-3.9c0.7-3.5,0.9-2.9,1.3-4.5l-0.2,0.7c0.1-0.4,0.2-0.7,0.2-1.1c-0.7,1.5-1.5,2.4-2,2.2
			c-0.3,1.5-0.8,3-1.5,4.4c-1.6,2.3-3.1,3.9-5.1,6.5c-1,1.3-2.2,2.8-3.8,4.7c-1.9,2.4-4.1,4.6-6.5,6.5c-2.5,1.9-2.6,1.1-3,0.6
			c-0.3-0.3-0.7-0.5-1.1-0.4c-1.2,0.3-2.4,0.6-3.6,1c-1.5,0.4-3.1,0.7-4.7,0.6c-1.6-0.1-2.9-0.5-3.2-0.9s0.7-0.7,1-1.1
			s0-0.7-1.8-1.6c-2.2-1.2-4.1-2.9-5.4-5c-1.2-1.8-2.2-3.8-2.8-5.9c-1.1-3.8-0.9-6.6-0.2-7.6c-1.6-4.9-2.8-10-3.8-15.1
			c-0.2,2.2-0.3,4.4-0.3,6.6c0,1.9,0,3.4-0.4,3.6c-0.9,0.6-1.5,2.6-1.5,5.7c0.1,3.8,0.9,7.6,2.5,11.1c0.9,2,1.6,3.5,2.3,4.9
			c0.6,1.3,1.3,2.5,2,3.7c0.9,1.4,2.1,2.7,3.5,3.7c2.3,1.7,5.1,2.7,8,2.8c-1.7,0.1-3.5,0-5.2-0.3c-0.9-0.2-1.8-0.3-2.6-0.4
			c1.1,0.9,2.4,1.4,3.8,1.7c2.3,0.5,4.7,0.6,7,0.3c2.2-0.4,4.4-1.1,6.4-2.1c1.6-0.8,2.7-1.6,3-1.7c2.4-0.8,4.6-2.1,6.5-3.7
			c3-2.6,5.5-5.7,7.3-9.2C351.7,220,352.6,217.8,353.4,215.6L353.4,215.6z"/>
		<path class="st17" d="M320.4,229.3c1.8,0.9,2,1.1,1.8,1.6s-1.1,0.7-1,1.1s1.6,0.8,3.2,0.9c1.6,0,3.2-0.2,4.7-0.6
			c1.2-0.4,2.4-0.7,3.6-1c0.4-0.1,0.9,0,1.1,0.4c0.4,0.5,0.5,1.2,3-0.6c2.4-1.9,4.6-4.1,6.5-6.5c1.6-1.9,2.7-3.4,3.8-4.7
			c2-2.6,3.5-4.1,5.1-6.5c0.7-1.4,1.2-2.9,1.5-4.4c-0.3-0.2-0.5-0.5-0.5-0.8c-0.1-0.3-0.6,1-1.3,2.6c-0.6,1.6-1.4,3.2-2.2,4.8
			c-1.3,1.2-0.6-2.2-0.4-5.5v-1.5l0.1-0.2V207c-0.4,1-0.8,2-1.2,2.9c-0.1,0.4-0.2,0.8-0.4,1.1l0.1-0.6c-0.5,1-1.1,2-1.8,2.9
			c-0.7,0.7-1.2,1.5-1.7,2.3c-0.2,0.5-0.4,1-0.6,1.5c0.2-0.4,0.3-0.7,0.4-1.1c-1.3,2.1-2.6,4.2-4.1,6.1c-1.3,1.8-2.9,3.3-4.8,4.4
			c-0.6,0.3-1.6,0.9-2.8,1.5c-1.2,0.7-2.5,1.2-3.9,1.5c-1,0.3-2.1,0.3-3.1,0c-0.7-0.2-1-0.6-0.7-1c-1.1,0.3-2.5-0.4-3.6-0.6
			c0.3-0.2,0.4-0.5,0.4-0.9c-0.8-0.4-1.4-1.1-1.9-1.8c0.3-0.1,1,0.4,1.7,0.8l-0.1-0.3l-0.2-0.2l-1.3-0.5c-0.6-0.1-1.2-0.3-1.8-0.5
			c0.2,0,0.5,0,0.7,0.1l1,0.4c0.3,0,0.5,0,0.8,0c-0.9-0.9-1.7-1.8-2.4-2.8c-0.2-0.2-0.5-0.4-0.7-0.5c0.2,0.1,0.4,0.3,0.6,0.5
			c-0.1-0.2-0.2-0.3-0.4-0.5c-0.7-0.5-1.3-1.1-1.9-1.7c-0.9-0.9-1.7-1.9-2.4-2.9c-0.2-2.1-0.6-4.2-1.2-6.2c-0.8,1-0.9,3.8,0.2,7.6
			c0.6,2.1,1.6,4.1,2.8,5.9C316.3,226.4,318.2,228.1,320.4,229.3L320.4,229.3z"/>
	</g>
</g>
<path id="_Path_9" class="st18" d="M333.6,191.7c-4.7,0-8.5-6.3-8.5-14c0-3,0.6-6,1.9-8.7c-1.2-0.5-2.5-0.8-3.8-0.8
	c-8.6,0-15.5,11.4-15.5,25.5s7,25.5,15.5,25.5s15.5-11.4,15.5-25.5c0-1.5-0.1-3-0.2-4.4C337.3,190.7,335.5,191.6,333.6,191.7z"/>
<path class="st19" d="M334.2,190.5c-9-0.9-8.1-15.6-5.7-21.3c0.2-0.5-0.1-1.1-0.6-1.3c0,0,0,0,0,0c-9.2-2.9-16.2,3.8-19.4,12
	c-4,10.4-3.6,24.2,3,33.6c4.4,6.3,12.1,9.1,18.8,4.4c8.9-6.2,10.6-19.2,9.8-29.1c-0.1-1.1-2.1-0.8-2.6-0.3c-0.9,1.1-2.2,1.8-3.6,2
	c-1.8,0.2-2.4,2.7-0.2,2.4c2.3-0.2,4.4-1.2,6-2.9l-2.6-0.3c0.7,8-0.4,17.2-5.6,23.7c-5.7,7.1-13.4,4.7-17.8-2.3s-5.2-16.2-3.8-24.2
	c1.4-7.8,6.3-19.8,16.3-16.7l-0.6-1.3c-3.1,7.3-3.1,23,7.6,24.1C334.7,193,336.3,190.7,334.2,190.5z"/>
<path id="_Path_10" class="st2" d="M282,271.6l-39.1,51.5l-39.1-51.5l39.1-39.1L282,271.6z"/>
<path class="st1" d="M280.7,271.2l-39.1,51.5l2.7-0.3l-31.6-41.7c-2.1-2.8-4-5.9-6.4-8.5c-0.4-0.4-0.8-0.9-1.1-1.4
	c0.5,1.2-0.5,0.9,1-0.1c2.9-2.1,5.5-5.5,8-8l11.9-11.9l18-18.1l-2.7,0.3l39.1,39.1c0.9,0.9,3.9-0.3,2.9-1.3l-39.1-39.1
	c-0.8-0.6-2-0.5-2.7,0.3l-39.1,39.1c-0.3,0.3-0.4,0.7-0.1,1.1l39.1,51.5c0.6,0.8,2.2,0.4,2.7-0.3l39.1-51.5
	C284.5,270.4,281.5,270.1,280.7,271.2L280.7,271.2z"/>
<path id="_Path_11" class="st20" d="M280.2,271.8l-36.7,48.4l-0.7-85.8L280.2,271.8z"/>
<path id="_Path_12" class="st21" d="M181.7,26.7c-10-4.8-13-0.1-3.5,4.4C195,41.7,209.3,56,219.8,72.8c12.2,19.5,21,45,22.8,52.5
	C238.7,84.8,216.2,48.4,181.7,26.7z"/>
<path id="_Path_13" class="st21" d="M330.7,2c10-4.8,13-0.1,3.5,4.4c-16.8,10.6-31.1,24.9-41.6,41.7c-12.2,19.5-21,45-22.8,52.5
	C273.7,60.1,296.2,23.7,330.7,2z"/>
<path class="st1" d="M198.6,340.4c9,4,19.2,4,28.2,0c0.7-0.3-2-4.8-3.4-4.2c-8.6,3.9-18.5,3.9-27.1,0
	C195,335.6,197.4,339.8,198.6,340.4L198.6,340.4z M255.3,340.4c8.9,4.4,19.3,4.4,28.2,0c0.7-0.4-2.1-4.8-3.4-4.2
	c-8.5,4.2-18.6,4.2-27.1,0C251.8,335.6,254.2,339.8,255.3,340.4L255.3,340.4z M228.6,364.5c8.8,4.8,19.4,4.8,28.2,0
	c0.8-0.4-2.2-4.8-3.4-4.2c-8.4,4.6-18.7,4.6-27.1,0C225.2,359.7,227.5,363.8,228.6,364.5L228.6,364.5z M188,386.4
	c9,3.8,19.2,3.8,28.2,0c0.7-0.3-2-4.7-3.4-4.2c-8.7,3.7-18.4,3.7-27.1,0C184.4,381.7,186.9,385.9,188,386.4L188,386.4z M264.9,385.6
	c8.9,4.2,19.3,4.2,28.2,0c0.7-0.3-2.1-4.8-3.4-4.2c-8.6,4.1-18.5,4.1-27.1,0C261.4,380.8,263.8,385,264.9,385.6L264.9,385.6z"/>
</svg>
